<svg width="80" height="80" viewBox="0 0 80 80" fill="none" xmlns="http://www.w3.org/2000/svg">
  <!-- Victorian-style ornate border -->
  <circle cx="40" cy="40" r="38" stroke="#080808" stroke-width="1" />
  <circle cx="40" cy="40" r="36" stroke="#080808" stroke-width="0.5" />
  
  <!-- Main circle with gold accent -->
  <circle cx="40" cy="40" r="30" fill="white" stroke="#C9A449" stroke-width="1" />
  
  <!-- Stylized B (for Bowen) and T (for Tattoo) monogram -->
  <path d="M32 28H40C44 28 46 30 46 33C46 36 44 37.5 41 37.5L48 52H42L36 38H36V52H32V28Z" fill="#080808"/>
  <path d="M32 36H39C41 36 42 35 42 33.5C42 32 41 31 39 31H36V36H32Z" fill="white"/>
  
  <!-- Decorative flourishes -->
  <path d="M55 40H52V52H48V28H52V36H55V40Z" fill="#080808"/>
  
  <!-- Ornate corner accents in gold -->
  <path d="M18 18L22 22" stroke="#C9A449" stroke-width="0.75"/>
  <path d="M62 18L58 22" stroke="#C9A449" stroke-width="0.75"/>
  <path d="M18 62L22 58" stroke="#C9A449" stroke-width="0.75"/>
  <path d="M62 62L58 58" stroke="#C9A449" stroke-width="0.75"/>
</svg> 